<svg id="visual" viewBox="0 0 900 400" width="900" height="400" xmlns="http://www.w3.org/2000/svg" xmlns:xlink="http://www.w3.org/1999/xlink" version="1.1"><g transform="translate(461.04584581880994 157.44728447560527)"><path d="M90.3 -132.3C118.9 -122.1 145.4 -100.3 168.1 -70.8C190.8 -41.4 209.7 -4.3 204.4 29C199 62.3 169.4 91.7 143.1 126.2C116.7 160.7 93.6 200.3 59.6 216.2C25.7 232.2 -19 224.5 -57.2 207.5C-95.4 190.4 -127 164 -156.3 133.6C-185.7 103.2 -212.6 68.8 -222.8 29.1C-233.1 -10.6 -226.6 -55.5 -197.9 -78.8C-169.3 -102.1 -118.4 -103.6 -81.7 -110.2C-45.1 -116.8 -22.5 -128.4 4.1 -134.8C30.8 -141.3 61.6 -142.6 90.3 -132.3" fill="#f8ac11"></path></g></svg>