<svg id="visual" viewBox="0 0 900 900" width="900" height="900" xmlns="http://www.w3.org/2000/svg" xmlns:xlink="http://www.w3.org/1999/xlink" version="1.1"><g transform="translate(467.17090734656165 465.89826544024857)"><path d="M185.8 -298.5C244 -251.7 296.7 -205.6 327.3 -147C357.9 -88.4 366.5 -17.2 344.7 40.9C322.9 99 270.7 144.1 229.3 207.1C187.9 270.1 157.3 350.9 107.7 364.4C58.1 377.8 -10.6 323.8 -74.1 288.7C-137.7 253.5 -196.2 237.1 -253.4 202.2C-310.7 167.4 -366.7 114.1 -384.6 49.7C-402.4 -14.6 -382.2 -90 -347 -154.9C-311.8 -219.9 -261.6 -274.4 -201.3 -320.2C-140.9 -366 -70.5 -403 -3.3 -397.8C63.8 -392.6 127.6 -345.2 185.8 -298.5" fill="#eca515"></path></g></svg>