<svg id="visual" viewBox="0 0 960 300" width="960" height="300" xmlns="http://www.w3.org/2000/svg" xmlns:xlink="http://www.w3.org/1999/xlink" version="1.1"><path d="M0 13L26.7 20C53.3 27 106.7 41 160 44C213.3 47 266.7 39 320 35C373.3 31 426.7 31 480 34C533.3 37 586.7 43 640 42.5C693.3 42 746.7 35 800 37C853.3 39 906.7 50 933.3 55.5L960 61L960 0L933.3 0C906.7 0 853.3 0 800 0C746.7 0 693.3 0 640 0C586.7 0 533.3 0 480 0C426.7 0 373.3 0 320 0C266.7 0 213.3 0 160 0C106.7 0 53.3 0 26.7 0L0 0Z" fill="#efb734"></path><path d="M0 106L26.7 118.5C53.3 131 106.7 156 160 151.5C213.3 147 266.7 113 320 94.5C373.3 76 426.7 73 480 72C533.3 71 586.7 72 640 75.5C693.3 79 746.7 85 800 90.5C853.3 96 906.7 101 933.3 103.5L960 106L960 59L933.3 53.5C906.7 48 853.3 37 800 35C746.7 33 693.3 40 640 40.5C586.7 41 533.3 35 480 32C426.7 29 373.3 29 320 33C266.7 37 213.3 45 160 42C106.7 39 53.3 25 26.7 18L0 11Z" fill="#f9aa5c"></path><path d="M0 241L26.7 240C53.3 239 106.7 237 160 232.5C213.3 228 266.7 221 320 212C373.3 203 426.7 192 480 192.5C533.3 193 586.7 205 640 214C693.3 223 746.7 229 800 231C853.3 233 906.7 231 933.3 230L960 229L960 104L933.3 101.5C906.7 99 853.3 94 800 88.5C746.7 83 693.3 77 640 73.5C586.7 70 533.3 69 480 70C426.7 71 373.3 74 320 92.5C266.7 111 213.3 145 160 149.5C106.7 154 53.3 129 26.7 116.5L0 104Z" fill="#f4a47d"></path><path d="M0 262L26.7 261C53.3 260 106.7 258 160 258.5C213.3 259 266.7 262 320 251C373.3 240 426.7 215 480 210.5C533.3 206 586.7 222 640 238C693.3 254 746.7 270 800 276C853.3 282 906.7 278 933.3 276L960 274L960 227L933.3 228C906.7 229 853.3 231 800 229C746.7 227 693.3 221 640 212C586.7 203 533.3 191 480 190.5C426.7 190 373.3 201 320 210C266.7 219 213.3 226 160 230.5C106.7 235 53.3 237 26.7 238L0 239Z" fill="#e2a497"></path><path d="M0 301L26.7 301C53.3 301 106.7 301 160 301C213.3 301 266.7 301 320 301C373.3 301 426.7 301 480 301C533.3 301 586.7 301 640 301C693.3 301 746.7 301 800 301C853.3 301 906.7 301 933.3 301L960 301L960 272L933.3 274C906.7 276 853.3 280 800 274C746.7 268 693.3 252 640 236C586.7 220 533.3 204 480 208.5C426.7 213 373.3 238 320 249C266.7 260 213.3 257 160 256.5C106.7 256 53.3 258 26.7 259L0 260Z" fill="#c6a7a7"></path></svg>