<svg id="visual" viewBox="0 0 960 300" width="960" height="300" xmlns="http://www.w3.org/2000/svg" xmlns:xlink="http://www.w3.org/1999/xlink" version="1.1"><path d="M0 202L22.8 198.5C45.7 195 91.3 188 137 184.2C182.7 180.3 228.3 179.7 274 185.7C319.7 191.7 365.3 204.3 411.2 211.5C457 218.7 503 220.3 548.8 215C594.7 209.7 640.3 197.3 686 193.2C731.7 189 777.3 193 823 194C868.7 195 914.3 193 937.2 192L960 191L960 301L937.2 301C914.3 301 868.7 301 823 301C777.3 301 731.7 301 686 301C640.3 301 594.7 301 548.8 301C503 301 457 301 411.2 301C365.3 301 319.7 301 274 301C228.3 301 182.7 301 137 301C91.3 301 45.7 301 22.8 301L0 301Z" fill="#e88c0f"></path><path d="M0 201L22.8 205.5C45.7 210 91.3 219 137 219.7C182.7 220.3 228.3 212.7 274 211C319.7 209.3 365.3 213.7 411.2 218.7C457 223.7 503 229.3 548.8 233C594.7 236.7 640.3 238.3 686 234.5C731.7 230.7 777.3 221.3 823 216.3C868.7 211.3 914.3 210.7 937.2 210.3L960 210L960 301L937.2 301C914.3 301 868.7 301 823 301C777.3 301 731.7 301 686 301C640.3 301 594.7 301 548.8 301C503 301 457 301 411.2 301C365.3 301 319.7 301 274 301C228.3 301 182.7 301 137 301C91.3 301 45.7 301 22.8 301L0 301Z" fill="#ea9718"></path><path d="M0 234L22.8 233C45.7 232 91.3 230 137 228.8C182.7 227.7 228.3 227.3 274 227.3C319.7 227.3 365.3 227.7 411.2 231.7C457 235.7 503 243.3 548.8 246.8C594.7 250.3 640.3 249.7 686 244.3C731.7 239 777.3 229 823 227.2C868.7 225.3 914.3 231.7 937.2 234.8L960 238L960 301L937.2 301C914.3 301 868.7 301 823 301C777.3 301 731.7 301 686 301C640.3 301 594.7 301 548.8 301C503 301 457 301 411.2 301C365.3 301 319.7 301 274 301C228.3 301 182.7 301 137 301C91.3 301 45.7 301 22.8 301L0 301Z" fill="#eca221"></path><path d="M0 259L22.8 261C45.7 263 91.3 267 137 268.3C182.7 269.7 228.3 268.3 274 265.2C319.7 262 365.3 257 411.2 256.8C457 256.7 503 261.3 548.8 261.2C594.7 261 640.3 256 686 254.8C731.7 253.7 777.3 256.3 823 254.7C868.7 253 914.3 247 937.2 244L960 241L960 301L937.2 301C914.3 301 868.7 301 823 301C777.3 301 731.7 301 686 301C640.3 301 594.7 301 548.8 301C503 301 457 301 411.2 301C365.3 301 319.7 301 274 301C228.3 301 182.7 301 137 301C91.3 301 45.7 301 22.8 301L0 301Z" fill="#eead2a"></path><path d="M0 280L22.8 279C45.7 278 91.3 276 137 275.7C182.7 275.3 228.3 276.7 274 278.3C319.7 280 365.3 282 411.2 282.8C457 283.7 503 283.3 548.8 280.5C594.7 277.7 640.3 272.3 686 270.3C731.7 268.3 777.3 269.7 823 270.2C868.7 270.7 914.3 270.3 937.2 270.2L960 270L960 301L937.2 301C914.3 301 868.7 301 823 301C777.3 301 731.7 301 686 301C640.3 301 594.7 301 548.8 301C503 301 457 301 411.2 301C365.3 301 319.7 301 274 301C228.3 301 182.7 301 137 301C91.3 301 45.7 301 22.8 301L0 301Z" fill="#efb734"></path></svg>