<svg id="visual" viewBox="0 0 900 300" width="900" height="300" xmlns="http://www.w3.org/2000/svg" xmlns:xlink="http://www.w3.org/1999/xlink" version="1.1"><path d="M0 88L13.7 84C27.3 80 54.7 72 82 72.5C109.3 73 136.7 82 163.8 87C191 92 218 93 245.2 96C272.3 99 299.7 104 327 98C354.3 92 381.7 75 409 66.5C436.3 58 463.7 58 491 67.5C518.3 77 545.7 96 573 108.5C600.3 121 627.7 127 654.8 125.5C682 124 709 115 736.2 114C763.3 113 790.7 120 818 121.5C845.3 123 872.7 119 886.3 117L900 115L900 0L886.3 0C872.7 0 845.3 0 818 0C790.7 0 763.3 0 736.2 0C709 0 682 0 654.8 0C627.7 0 600.3 0 573 0C545.7 0 518.3 0 491 0C463.7 0 436.3 0 409 0C381.7 0 354.3 0 327 0C299.7 0 272.3 0 245.2 0C218 0 191 0 163.8 0C136.7 0 109.3 0 82 0C54.7 0 27.3 0 13.7 0L0 0Z" fill="#c6a7a7"></path><path d="M0 136L13.7 127C27.3 118 54.7 100 82 100C109.3 100 136.7 118 163.8 123.5C191 129 218 122 245.2 124.5C272.3 127 299.7 139 327 137.5C354.3 136 381.7 121 409 110C436.3 99 463.7 92 491 96.5C518.3 101 545.7 117 573 128.5C600.3 140 627.7 147 654.8 147C682 147 709 140 736.2 140.5C763.3 141 790.7 149 818 150C845.3 151 872.7 145 886.3 142L900 139L900 113L886.3 115C872.7 117 845.3 121 818 119.5C790.7 118 763.3 111 736.2 112C709 113 682 122 654.8 123.5C627.7 125 600.3 119 573 106.5C545.7 94 518.3 75 491 65.5C463.7 56 436.3 56 409 64.5C381.7 73 354.3 90 327 96C299.7 102 272.3 97 245.2 94C218 91 191 90 163.8 85C136.7 80 109.3 71 82 70.5C54.7 70 27.3 78 13.7 82L0 86Z" fill="#d3a9a1"></path><path d="M0 199L13.7 196C27.3 193 54.7 187 82 188.5C109.3 190 136.7 199 163.8 201.5C191 204 218 200 245.2 200C272.3 200 299.7 204 327 202.5C354.3 201 381.7 194 409 193.5C436.3 193 463.7 199 491 200.5C518.3 202 545.7 199 573 197.5C600.3 196 627.7 196 654.8 194C682 192 709 188 736.2 188C763.3 188 790.7 192 818 199C845.3 206 872.7 216 886.3 221L900 226L900 137L886.3 140C872.7 143 845.3 149 818 148C790.7 147 763.3 139 736.2 138.5C709 138 682 145 654.8 145C627.7 145 600.3 138 573 126.5C545.7 115 518.3 99 491 94.5C463.7 90 436.3 97 409 108C381.7 119 354.3 134 327 135.5C299.7 137 272.3 125 245.2 122.5C218 120 191 127 163.8 121.5C136.7 116 109.3 98 82 98C54.7 98 27.3 116 13.7 125L0 134Z" fill="#ddad98"></path><path d="M0 235L13.7 233C27.3 231 54.7 227 82 230C109.3 233 136.7 243 163.8 248C191 253 218 253 245.2 253.5C272.3 254 299.7 255 327 253.5C354.3 252 381.7 248 409 248.5C436.3 249 463.7 254 491 253C518.3 252 545.7 245 573 242C600.3 239 627.7 240 654.8 240.5C682 241 709 241 736.2 243.5C763.3 246 790.7 251 818 254.5C845.3 258 872.7 260 886.3 261L900 262L900 224L886.3 219C872.7 214 845.3 204 818 197C790.7 190 763.3 186 736.2 186C709 186 682 190 654.8 192C627.7 194 600.3 194 573 195.5C545.7 197 518.3 200 491 198.5C463.7 197 436.3 191 409 191.5C381.7 192 354.3 199 327 200.5C299.7 202 272.3 198 245.2 198C218 198 191 202 163.8 199.5C136.7 197 109.3 188 82 186.5C54.7 185 27.3 191 13.7 194L0 197Z" fill="#e2b38e"></path><path d="M0 301L13.7 301C27.3 301 54.7 301 82 301C109.3 301 136.7 301 163.8 301C191 301 218 301 245.2 301C272.3 301 299.7 301 327 301C354.3 301 381.7 301 409 301C436.3 301 463.7 301 491 301C518.3 301 545.7 301 573 301C600.3 301 627.7 301 654.8 301C682 301 709 301 736.2 301C763.3 301 790.7 301 818 301C845.3 301 872.7 301 886.3 301L900 301L900 260L886.3 259C872.7 258 845.3 256 818 252.5C790.7 249 763.3 244 736.2 241.5C709 239 682 239 654.8 238.5C627.7 238 600.3 237 573 240C545.7 243 518.3 250 491 251C463.7 252 436.3 247 409 246.5C381.7 246 354.3 250 327 251.5C299.7 253 272.3 252 245.2 251.5C218 251 191 251 163.8 246C136.7 241 109.3 231 82 228C54.7 225 27.3 229 13.7 231L0 233Z" fill="#e0bc84"></path></svg>