<svg id="visual" viewBox="0 0 900 300" width="900" height="300" xmlns="http://www.w3.org/2000/svg" xmlns:xlink="http://www.w3.org/1999/xlink" version="1.1"><path d="M0 58L13.7 54.5C27.3 51 54.7 44 82 39.5C109.3 35 136.7 33 163.8 37C191 41 218 51 245.2 56.5C272.3 62 299.7 63 327 63.5C354.3 64 381.7 64 409 58C436.3 52 463.7 40 491 34.5C518.3 29 545.7 30 573 31C600.3 32 627.7 33 654.8 32C682 31 709 28 736.2 27C763.3 26 790.7 27 818 29.5C845.3 32 872.7 36 886.3 38L900 40L900 0L886.3 0C872.7 0 845.3 0 818 0C790.7 0 763.3 0 736.2 0C709 0 682 0 654.8 0C627.7 0 600.3 0 573 0C545.7 0 518.3 0 491 0C463.7 0 436.3 0 409 0C381.7 0 354.3 0 327 0C299.7 0 272.3 0 245.2 0C218 0 191 0 163.8 0C136.7 0 109.3 0 82 0C54.7 0 27.3 0 13.7 0L0 0Z" fill="#f4a47d"></path><path d="M0 151L13.7 142C27.3 133 54.7 115 82 115.5C109.3 116 136.7 135 163.8 141C191 147 218 140 245.2 139.5C272.3 139 299.7 145 327 145.5C354.3 146 381.7 141 409 129.5C436.3 118 463.7 100 491 94C518.3 88 545.7 94 573 110.5C600.3 127 627.7 154 654.8 158.5C682 163 709 145 736.2 135C763.3 125 790.7 123 818 118C845.3 113 872.7 105 886.3 101L900 97L900 38L886.3 36C872.7 34 845.3 30 818 27.5C790.7 25 763.3 24 736.2 25C709 26 682 29 654.8 30C627.7 31 600.3 30 573 29C545.7 28 518.3 27 491 32.5C463.7 38 436.3 50 409 56C381.7 62 354.3 62 327 61.5C299.7 61 272.3 60 245.2 54.5C218 49 191 39 163.8 35C136.7 31 109.3 33 82 37.5C54.7 42 27.3 49 13.7 52.5L0 56Z" fill="#eca38b"></path><path d="M0 175L13.7 170C27.3 165 54.7 155 82 156.5C109.3 158 136.7 171 163.8 177C191 183 218 182 245.2 179.5C272.3 177 299.7 173 327 169.5C354.3 166 381.7 163 409 155.5C436.3 148 463.7 136 491 132C518.3 128 545.7 132 573 149C600.3 166 627.7 196 654.8 199.5C682 203 709 180 736.2 170.5C763.3 161 790.7 165 818 159C845.3 153 872.7 137 886.3 129L900 121L900 95L886.3 99C872.7 103 845.3 111 818 116C790.7 121 763.3 123 736.2 133C709 143 682 161 654.8 156.5C627.7 152 600.3 125 573 108.5C545.7 92 518.3 86 491 92C463.7 98 436.3 116 409 127.5C381.7 139 354.3 144 327 143.5C299.7 143 272.3 137 245.2 137.5C218 138 191 145 163.8 139C136.7 133 109.3 114 82 113.5C54.7 113 27.3 131 13.7 140L0 149Z" fill="#e2a497"></path><path d="M0 235L13.7 233.5C27.3 232 54.7 229 82 234C109.3 239 136.7 252 163.8 256.5C191 261 218 257 245.2 251C272.3 245 299.7 237 327 235C354.3 233 381.7 237 409 242.5C436.3 248 463.7 255 491 256.5C518.3 258 545.7 254 573 256C600.3 258 627.7 266 654.8 266C682 266 709 258 736.2 249.5C763.3 241 790.7 232 818 227C845.3 222 872.7 221 886.3 220.5L900 220L900 119L886.3 127C872.7 135 845.3 151 818 157C790.7 163 763.3 159 736.2 168.5C709 178 682 201 654.8 197.5C627.7 194 600.3 164 573 147C545.7 130 518.3 126 491 130C463.7 134 436.3 146 409 153.5C381.7 161 354.3 164 327 167.5C299.7 171 272.3 175 245.2 177.5C218 180 191 181 163.8 175C136.7 169 109.3 156 82 154.5C54.7 153 27.3 163 13.7 168L0 173Z" fill="#d5a5a0"></path><path d="M0 301L13.7 301C27.3 301 54.7 301 82 301C109.3 301 136.7 301 163.8 301C191 301 218 301 245.2 301C272.3 301 299.7 301 327 301C354.3 301 381.7 301 409 301C436.3 301 463.7 301 491 301C518.3 301 545.7 301 573 301C600.3 301 627.7 301 654.8 301C682 301 709 301 736.2 301C763.3 301 790.7 301 818 301C845.3 301 872.7 301 886.3 301L900 301L900 218L886.3 218.5C872.7 219 845.3 220 818 225C790.7 230 763.3 239 736.2 247.5C709 256 682 264 654.8 264C627.7 264 600.3 256 573 254C545.7 252 518.3 256 491 254.5C463.7 253 436.3 246 409 240.5C381.7 235 354.3 231 327 233C299.7 235 272.3 243 245.2 249C218 255 191 259 163.8 254.5C136.7 250 109.3 237 82 232C54.7 227 27.3 230 13.7 231.5L0 233Z" fill="#c6a7a7"></path></svg>