<svg id="visual" viewBox="0 0 900 300" width="900" height="300" xmlns="http://www.w3.org/2000/svg" xmlns:xlink="http://www.w3.org/1999/xlink" version="1.1"><path d="M0 76L13.7 82C27.3 88 54.7 100 82 99.5C109.3 99 136.7 86 163.8 88C191 90 218 107 245.2 110C272.3 113 299.7 102 327 89.5C354.3 77 381.7 63 409 61.5C436.3 60 463.7 71 491 72.5C518.3 74 545.7 66 573 69.5C600.3 73 627.7 88 654.8 95C682 102 709 101 736.2 100C763.3 99 790.7 98 818 99.5C845.3 101 872.7 105 886.3 107L900 109L900 0L886.3 0C872.7 0 845.3 0 818 0C790.7 0 763.3 0 736.2 0C709 0 682 0 654.8 0C627.7 0 600.3 0 573 0C545.7 0 518.3 0 491 0C463.7 0 436.3 0 409 0C381.7 0 354.3 0 327 0C299.7 0 272.3 0 245.2 0C218 0 191 0 163.8 0C136.7 0 109.3 0 82 0C54.7 0 27.3 0 13.7 0L0 0Z" fill="#efb734"></path><path d="M0 109L13.7 117C27.3 125 54.7 141 82 140C109.3 139 136.7 121 163.8 120.5C191 120 218 137 245.2 139C272.3 141 299.7 128 327 113.5C354.3 99 381.7 83 409 84.5C436.3 86 463.7 105 491 110.5C518.3 116 545.7 108 573 112.5C600.3 117 627.7 134 654.8 140C682 146 709 141 736.2 135C763.3 129 790.7 122 818 122C845.3 122 872.7 129 886.3 132.5L900 136L900 107L886.3 105C872.7 103 845.3 99 818 97.5C790.7 96 763.3 97 736.2 98C709 99 682 100 654.8 93C627.7 86 600.3 71 573 67.5C545.7 64 518.3 72 491 70.5C463.7 69 436.3 58 409 59.5C381.7 61 354.3 75 327 87.5C299.7 100 272.3 111 245.2 108C218 105 191 88 163.8 86C136.7 84 109.3 97 82 97.5C54.7 98 27.3 86 13.7 80L0 74Z" fill="#f6b049"></path><path d="M0 142L13.7 148C27.3 154 54.7 166 82 168C109.3 170 136.7 162 163.8 167C191 172 218 190 245.2 190.5C272.3 191 299.7 174 327 161C354.3 148 381.7 139 409 140.5C436.3 142 463.7 154 491 155C518.3 156 545.7 146 573 150.5C600.3 155 627.7 174 654.8 183C682 192 709 191 736.2 187.5C763.3 184 790.7 178 818 173C845.3 168 872.7 164 886.3 162L900 160L900 134L886.3 130.5C872.7 127 845.3 120 818 120C790.7 120 763.3 127 736.2 133C709 139 682 144 654.8 138C627.7 132 600.3 115 573 110.5C545.7 106 518.3 114 491 108.5C463.7 103 436.3 84 409 82.5C381.7 81 354.3 97 327 111.5C299.7 126 272.3 139 245.2 137C218 135 191 118 163.8 118.5C136.7 119 109.3 137 82 138C54.7 139 27.3 123 13.7 115L0 107Z" fill="#f9aa5c"></path><path d="M0 226L13.7 228.5C27.3 231 54.7 236 82 232.5C109.3 229 136.7 217 163.8 219.5C191 222 218 239 245.2 236C272.3 233 299.7 210 327 199.5C354.3 189 381.7 191 409 198.5C436.3 206 463.7 219 491 220.5C518.3 222 545.7 212 573 213.5C600.3 215 627.7 228 654.8 232C682 236 709 231 736.2 233C763.3 235 790.7 244 818 245C845.3 246 872.7 239 886.3 235.5L900 232L900 158L886.3 160C872.7 162 845.3 166 818 171C790.7 176 763.3 182 736.2 185.5C709 189 682 190 654.8 181C627.7 172 600.3 153 573 148.5C545.7 144 518.3 154 491 153C463.7 152 436.3 140 409 138.5C381.7 137 354.3 146 327 159C299.7 172 272.3 189 245.2 188.5C218 188 191 170 163.8 165C136.7 160 109.3 168 82 166C54.7 164 27.3 152 13.7 146L0 140Z" fill="#f8a66d"></path><path d="M0 301L13.7 301C27.3 301 54.7 301 82 301C109.3 301 136.7 301 163.8 301C191 301 218 301 245.2 301C272.3 301 299.7 301 327 301C354.3 301 381.7 301 409 301C436.3 301 463.7 301 491 301C518.3 301 545.7 301 573 301C600.3 301 627.7 301 654.8 301C682 301 709 301 736.2 301C763.3 301 790.7 301 818 301C845.3 301 872.7 301 886.3 301L900 301L900 230L886.3 233.5C872.7 237 845.3 244 818 243C790.7 242 763.3 233 736.2 231C709 229 682 234 654.8 230C627.7 226 600.3 213 573 211.5C545.7 210 518.3 220 491 218.5C463.7 217 436.3 204 409 196.5C381.7 189 354.3 187 327 197.5C299.7 208 272.3 231 245.2 234C218 237 191 220 163.8 217.5C136.7 215 109.3 227 82 230.5C54.7 234 27.3 229 13.7 226.5L0 224Z" fill="#f4a47d"></path></svg>